<svg width="60" height="60" viewBox="0 0 60 60" fill="none" xmlns="http://www.w3.org/2000/svg">
<path d="M56.4 48.9992C41.2 48.9992 26 48.9992 10.8 48.9992C10 48.9992 9.13333 49.1992 8.2 49.5992L0.8 52.7992C0.266667 53.0659 0 53.4992 0 54.0992C0 54.6992 0.266667 55.0659 0.8 55.1992L8.2 58.5992C9 58.9992 9.8 59.1992 10.6 59.1992H28.4C28.6667 59.1992 28.9 59.0992 29.1 58.8992C29.3 58.6992 29.4 58.4992 29.4 58.2992C29.4 58.0992 29.3 57.8992 29.1 57.6992C28.9 57.4992 28.6667 57.3992 28.4 57.3992H11.6V54.9992H50.6V57.3992H32.8C32.5333 57.3992 32.3333 57.4992 32.2 57.6992C32.0667 57.8992 32 58.0992 32 58.2992C32 58.4992 32.0667 58.6992 32.2 58.8992C32.3333 59.0992 32.5333 59.1992 32.8 59.1992H56.4C57.3333 59.1992 58.1667 58.8326 58.9 58.0992C59.6333 57.3659 60 56.5326 60 55.5992V52.5992C60 51.5326 59.6333 50.6659 58.9 49.9992C58.1667 49.3326 57.3333 48.9992 56.4 48.9992ZM5.2 52.7992V55.1992L2.4 53.9992L5.2 52.7992ZM6.8 55.9992V51.9992L10 50.7992V57.3992C9.73333 57.2659 8.66667 56.7992 6.8 55.9992ZM11.6 53.1992V50.7992H50.6V53.1992H11.6ZM58.2 55.5992C58.2 56.1326 58.0333 56.5659 57.7 56.8992C57.3667 57.2326 56.9333 57.3992 56.4 57.3992H52.2V50.7992H56.4C56.9333 50.7992 57.3667 50.9659 57.7 51.2992C58.0333 51.6326 58.2 52.0659 58.2 52.5992V55.5992ZM1.6 45.9992H28.4C28.6667 45.9992 28.8667 45.9326 29 45.7992C29.1333 45.6659 29.2 45.4659 29.2 45.1992C29.2 44.9326 29.1333 44.7326 29 44.5992C28.8667 44.4659 28.6667 44.3992 28.4 44.3992H1.8V8.39922H5.2V37.7992C5.2 38.1992 5.36667 38.5326 5.7 38.7992C6.03333 39.0659 6.4 39.1992 6.8 39.1992H43.2C43.8667 39.1992 44.3 38.9326 44.5 38.3992C44.7 37.8659 44.6 37.3992 44.2 36.9992L15.6 8.39922H47.8V36.3992C47.8 36.7992 47.9667 37.1326 48.3 37.3992C48.6333 37.6659 49 37.7992 49.4 37.7992H53.2C54.1333 37.7992 54.9333 38.1326 55.6 38.7992C56.2667 39.4659 56.6 40.2326 56.6 41.0992C56.6 41.9659 56.2667 42.7326 55.6 43.3992C54.9333 44.0659 54.1333 44.3992 53.2 44.3992H32.4C32.1333 44.3992 31.9333 44.4659 31.8 44.5992C31.6667 44.7326 31.6 44.9326 31.6 45.1992C31.6 45.4659 31.6667 45.6659 31.8 45.7992C31.9333 45.9326 32.1333 45.9992 32.4 45.9992H53.2C54.6667 45.9992 55.8667 45.5326 56.8 44.5992C57.7333 43.6659 58.2 42.4659 58.2 40.9992V8.19922C58.2 6.73255 57.7333 5.49922 56.8 4.49922C55.8667 3.49922 54.6667 2.99922 53.2 2.99922H49.4C49 2.99922 48.6333 3.16589 48.3 3.49922C47.9667 3.83255 47.8 4.19922 47.8 4.59922V6.59922H13.8L7.6 0.39922C7.06667 -0.000782013 6.53333 -0.10078 6 0.0992165C5.46667 0.299217 5.2 0.732552 5.2 1.39922V6.59922H1.6C1.06667 6.59922 0.666667 6.76588 0.4 7.09922C0.133333 7.43255 0 7.79922 0 8.19922V44.5992C0 44.9992 0.133333 45.3326 0.4 45.5992C0.666667 45.8659 1.06667 45.9992 1.6 45.9992ZM49.6 4.79922H53.2C54.1333 4.79922 54.9333 5.13255 55.6 5.79922C56.2667 6.46589 56.6 7.26588 56.6 8.19922V37.1992C55.6667 36.3992 54.5333 35.9992 53.2 35.9992H49.6V4.79922ZM7 2.39922L42.2 37.5992H34.6V36.1992C34.6 36.0659 34.5333 35.8992 34.4 35.6992C34.2667 35.4992 34.0667 35.3992 33.8 35.3992C33.5333 35.3992 33.3333 35.4992 33.2 35.6992C33.0667 35.8992 33 36.0659 33 36.1992V37.5992H29.2V35.1992C29.2 34.9326 29.1 34.6992 28.9 34.4992C28.7 34.2992 28.5 34.1992 28.3 34.1992C28.1 34.1992 27.9 34.2992 27.7 34.4992C27.5 34.6992 27.4 34.9326 27.4 35.1992V37.5992H23.6V36.1992C23.6 36.0659 23.5333 35.8992 23.4 35.6992C23.2667 35.4992 23.0667 35.3992 22.8 35.3992C22.5333 35.3992 22.3 35.4992 22.1 35.6992C21.9 35.8992 21.8 36.0659 21.8 36.1992V37.5992H18V35.1992C18 34.9326 17.9333 34.6992 17.8 34.4992C17.6667 34.2992 17.4667 34.1992 17.2 34.1992C16.9333 34.1992 16.7333 34.2992 16.6 34.4992C16.4667 34.6992 16.4 34.9326 16.4 35.1992V37.5992H12.6V36.1992C12.6 36.0659 12.5 35.8992 12.3 35.6992C12.1 35.4992 11.9 35.3992 11.7 35.3992C11.5 35.3992 11.3 35.4992 11.1 35.6992C10.9 35.8992 10.8 36.0659 10.8 36.1992V37.5992H7V2.39922ZM14.6 31.1992H24.4C25.0667 31.1992 25.4667 30.9659 25.6 30.4992C25.7333 30.0326 25.6 29.5326 25.2 28.9992L15.4 19.3992C14.8667 18.8659 14.4 18.6992 14 18.8992C13.6 19.0992 13.4 19.5326 13.4 20.1992V29.9992C13.4 30.7992 13.8 31.1992 14.6 31.1992ZM15.2 21.5992L22.8 29.3992H15.2V21.5992Z" fill="#FF9100"/>
</svg>
