<svg width="60" height="62" viewBox="0 0 60 62" fill="none" xmlns="http://www.w3.org/2000/svg">
<path d="M25.4 23.513V19.8326C25.4 19.56 25.2667 19.2873 25 19.0147C24.7333 18.7421 24.4667 18.6058 24.2 18.6058H13.6V9.60912H24.2C24.4667 9.60912 24.7333 9.47281 25 9.20018C25.2667 8.92755 25.4 8.65493 25.4 8.3823V4.70185C25.4 4.42923 25.2 4.1566 24.8 3.88398L20.2 0.203529C19.9333 0.067215 19.6667 -0.000938416 19.4 -0.000938416H1.2C0.8 -0.000938416 0.5 0.101295 0.3 0.305763C0.1 0.510235 0 0.816936 0 1.22588V25.3533C0 25.6259 0.1 25.8644 0.3 26.0689C0.5 26.2734 0.766667 26.3756 1.1 26.3756C1.43333 26.3756 1.73333 26.2734 2 26.0689C2.26667 25.8644 2.4 25.6259 2.4 25.3533V2.45269H19L23 5.31526V7.15548H12.4C12.1333 7.15548 11.8667 7.2918 11.6 7.56442C11.3333 7.83705 11.2 8.10968 11.2 8.3823V18.6058H9C8.6 18.6058 8.3 18.7421 8.1 19.0147C7.9 19.2873 7.8 19.56 7.8 19.8326V37.8259C7.8 38.2348 7.9 38.5415 8.1 38.746C8.3 38.9505 8.6 39.0527 9 39.0527H11.2V43.7555H9C8.6 43.7555 8.3 43.8918 8.1 44.1644C7.9 44.437 7.8 44.7438 7.8 45.0845C7.8 45.4253 7.9 45.6979 8.1 45.9024C8.3 46.1069 8.6 46.2091 9 46.2091H11.2V51.3208H9C8.6 51.3208 8.3 51.4572 8.1 51.7298C7.9 52.0024 7.8 52.3091 7.8 52.6499C7.8 52.9907 7.9 53.2633 8.1 53.4678C8.3 53.6722 8.6 53.7745 9 53.7745H11.2V58.8862H2.4V35.9857C2.4 35.713 2.26667 35.4745 2 35.27C1.73333 35.0655 1.43333 34.9633 1.1 34.9633C0.766667 34.9633 0.5 35.0655 0.3 35.27C0.1 35.4745 0 35.713 0 35.9857V60.113C0 60.522 0.1 60.8287 0.3 61.0331C0.5 61.2376 0.8 61.3398 1.2 61.3398H12.4C12.8 61.3398 13.1 61.2376 13.3 61.0331C13.5 60.8287 13.6 60.522 13.6 60.113V39.0527H16C16.2667 39.0527 16.5333 38.9505 16.8 38.746C17.0667 38.5415 17.2 38.2348 17.2 37.8259V28.2158H19.4C19.6667 28.2158 19.9333 28.1477 20.2 28.0114L24.8 24.5354C25.2 24.2627 25.4 23.922 25.4 23.513ZM23 22.8996L19 25.9667H16C15.6 25.9667 15.3 26.0689 15.1 26.2734C14.9 26.4778 14.8 26.7164 14.8 26.989V36.5991H10V21.0594H23V22.8996ZM42 26.1711C41.8667 26.0348 41.6333 25.9667 41.3 25.9667C40.9667 25.9667 40.6667 26.0348 40.4 26.1711L22.8 42.9376C22.6667 43.2102 22.5667 43.5169 22.5 43.8577C22.4333 44.1985 22.5333 44.4711 22.8 44.6756C23.0667 44.8801 23.3667 44.9823 23.7 44.9823C24.0333 44.9823 24.2667 44.9141 24.4 44.7778L26 43.3465V60.113C26 60.522 26.1333 60.8287 26.4 61.0331C26.6667 61.2376 26.9333 61.3398 27.2 61.3398H55.4C55.6667 61.3398 55.9 61.2376 56.1 61.0331C56.3 60.8287 56.4 60.522 56.4 60.113V43.3465L58 44.7778C58.2667 44.9141 58.5667 44.9823 58.9 44.9823C59.2333 44.9823 59.5 44.8801 59.7 44.6756C59.9 44.4711 60 44.1985 60 43.8577C60 43.5169 59.8667 43.2102 59.6 42.9376L42 26.1711ZM43.6 58.8862H39V48.6627H43.6V58.8862ZM54.2 58.8862H46V47.4359C46 47.1633 45.8667 46.8907 45.6 46.6181C45.3333 46.3454 45.0667 46.2091 44.8 46.2091H37.8C37.4 46.2091 37.1 46.3454 36.9 46.6181C36.7 46.8907 36.6 47.1633 36.6 47.4359V58.8862H28.4V41.0974L41.2 28.6248L54.2 41.0974V58.8862ZM46.4 21.0594H50C50.2667 21.0594 50.5 20.9572 50.7 20.7527C50.9 20.5482 51 20.2756 51 19.9348C51 19.594 50.9 19.2873 50.7 19.0147C50.5 18.7421 50.2667 18.6058 50 18.6058H46.4C46.1333 18.6058 45.8667 18.7421 45.6 19.0147C45.3333 19.2873 45.2 19.594 45.2 19.9348C45.2 20.2756 45.3333 20.5482 45.6 20.7527C45.8667 20.9572 46.1333 21.0594 46.4 21.0594ZM38.2 21.0594H41.8C42.0667 21.0594 42.3 20.9572 42.5 20.7527C42.7 20.5482 42.8 20.2756 42.8 19.9348C42.8 19.594 42.7 19.2873 42.5 19.0147C42.3 18.7421 42.0667 18.6058 41.8 18.6058H38.2C37.9333 18.6058 37.6667 18.7421 37.4 19.0147C37.1333 19.2873 37 19.594 37 19.9348C37 20.2756 37.1333 20.5482 37.4 20.7527C37.6667 20.9572 37.9333 21.0594 38.2 21.0594ZM46.4 2.45269H50C50.2667 2.45269 50.5 2.31638 50.7 2.04375C50.9 1.77113 51 1.46442 51 1.12364C51 0.78286 50.9 0.510235 50.7 0.305763C50.5 0.101295 50.2667 -0.000938416 50 -0.000938416H46.4C46.1333 -0.000938416 45.8667 0.101295 45.6 0.305763C45.3333 0.510235 45.2 0.78286 45.2 1.12364C45.2 1.46442 45.3333 1.77113 45.6 2.04375C45.8667 2.31638 46.1333 2.45269 46.4 2.45269ZM38.2 2.45269H41.8C42.0667 2.45269 42.3 2.31638 42.5 2.04375C42.7 1.77113 42.8 1.46442 42.8 1.12364C42.8 0.78286 42.7 0.510235 42.5 0.305763C42.3 0.101295 42.0667 -0.000938416 41.8 -0.000938416H38.2C37.9333 -0.000938416 37.6667 0.101295 37.4 0.305763C37.1333 0.510235 37 0.78286 37 1.12364C37 1.46442 37.1333 1.77113 37.4 2.04375C37.6667 2.31638 37.9333 2.45269 38.2 2.45269ZM28.8 21.0594H32.4C32.6667 21.0594 32.9333 20.9572 33.2 20.7527C33.4667 20.5482 33.6 20.2756 33.6 19.9348C33.6 19.594 33.4667 19.2873 33.2 19.0147C32.9333 18.7421 32.6667 18.6058 32.4 18.6058H28.8C28.5333 18.6058 28.2667 18.7421 28 19.0147C27.7333 19.2873 27.6 19.594 27.6 19.9348C27.6 20.2756 27.7333 20.5482 28 20.7527C28.2667 20.9572 28.5333 21.0594 28.8 21.0594ZM28.8 2.45269H32.4C32.6667 2.45269 32.9333 2.31638 33.2 2.04375C33.4667 1.77113 33.6 1.46442 33.6 1.12364C33.6 0.78286 33.4667 0.510235 33.2 0.305763C32.9333 0.101295 32.6667 -0.000938416 32.4 -0.000938416H28.8C28.5333 -0.000938416 28.2667 0.101295 28 0.305763C27.7333 0.510235 27.6 0.78286 27.6 1.12364C27.6 1.46442 27.7333 1.77113 28 2.04375C28.2667 2.31638 28.5333 2.45269 28.8 2.45269ZM58.8 -0.000938416H54.6C54.3333 -0.000938416 54.0667 0.101295 53.8 0.305763C53.5333 0.510235 53.4 0.78286 53.4 1.12364C53.4 1.46442 53.5333 1.77113 53.8 2.04375C54.0667 2.31638 54.3333 2.45269 54.6 2.45269H57.6V18.6058H54.6C54.3333 18.6058 54.0667 18.7421 53.8 19.0147C53.5333 19.2873 53.4 19.594 53.4 19.9348C53.4 20.2756 53.5333 20.5482 53.8 20.7527C54.0667 20.9572 54.3333 21.0594 54.6 21.0594H57.6V30.6695C57.6 30.9421 57.7333 31.2147 58 31.4873C58.2667 31.76 58.5667 31.8963 58.9 31.8963C59.2333 31.8963 59.5 31.76 59.7 31.4873C59.9 31.2147 60 30.9421 60 30.6695V1.22588C60 0.816936 59.9 0.510235 59.7 0.305763C59.5 0.101295 59.2 -0.000938416 58.8 -0.000938416ZM37.8 40.2795C37.8 41.2337 38.1333 42.0516 38.8 42.7331C39.4667 43.4147 40.3 43.7555 41.3 43.7555C42.3 43.7555 43.1333 43.4147 43.8 42.7331C44.4667 42.0516 44.8 41.2337 44.8 40.2795C44.8 39.3253 44.4667 38.4734 43.8 37.7236C43.1333 36.9739 42.3 36.5991 41.3 36.5991C40.3 36.5991 39.4667 36.9739 38.8 37.7236C38.1333 38.4734 37.8 39.3253 37.8 40.2795ZM42.4 40.2795C42.4 40.5521 42.3 40.8248 42.1 41.0974C41.9 41.37 41.6333 41.5063 41.3 41.5063C40.9667 41.5063 40.6667 41.37 40.4 41.0974C40.1333 40.8248 40 40.5181 40 40.1773C40 39.8365 40.1333 39.5639 40.4 39.3594C40.6667 39.1549 40.9667 39.0527 41.3 39.0527C41.6333 39.0527 41.9 39.1549 42.1 39.3594C42.3 39.5639 42.4 39.8706 42.4 40.2795ZM2.4 30.6695C2.4 30.9421 2.26667 31.2147 2 31.4873C1.73333 31.76 1.43333 31.8963 1.1 31.8963C0.766667 31.8963 0.5 31.76 0.3 31.4873C0.1 31.2147 0 30.9421 0 30.6695C0 30.3968 0.1 30.1242 0.3 29.8516C0.5 29.5789 0.766667 29.4426 1.1 29.4426C1.43333 29.4426 1.73333 29.5789 2 29.8516C2.26667 30.1242 2.4 30.3968 2.4 30.6695Z" fill="#FF9100"/>
</svg>
