<svg width="60" height="60" viewBox="0 0 60 60" fill="none" xmlns="http://www.w3.org/2000/svg">
<path d="M59.2 21.4H58V20.2C58 20.0667 57.9333 19.9 57.8 19.7C57.6667 19.5 57.4667 19.4 57.2 19.4C56.9333 19.4 56.7333 19.5 56.6 19.7C56.4667 19.9 56.4 20.0667 56.4 20.2V21.4H55.2C54.9333 21.4 54.7333 21.4667 54.6 21.6C54.4667 21.7333 54.4 21.9333 54.4 22.2V25.2C54.4 25.2 54.3333 25.2 54.2 25.2H47.4C47.2667 25.2 47.1 25.3 46.9 25.5C46.7 25.7 46.6 25.9333 46.6 26.2V27.2H45.6C45.3333 27.2 45.1 27.2667 44.9 27.4C44.7 27.5333 44.6 27.7333 44.6 28C44.6 28.2667 44.7 28.5 44.9 28.7C45.1 28.9 45.3333 29 45.6 29H46.6V30C46.6 30.2667 46.7 30.4667 46.9 30.6C47.1 30.7333 47.2667 30.8 47.4 30.8H54.2C54.3333 30.8 54.4 30.8667 54.4 31V46.6C54.4 46.6 54.3333 46.6 54.2 46.6H36.8V41.6C36.8 41.3333 36.7 41.1333 36.5 41C36.3 40.8667 36.0667 40.8 35.8 40.8H34.8V39.8C34.8 39.5333 34.7 39.3 34.5 39.1C34.3 38.9 34.1 38.8 33.9 38.8C33.7 38.8 33.5 38.9 33.3 39.1C33.1 39.3 33 39.5333 33 39.8V40.8H32C31.7333 40.8 31.5 40.8667 31.3 41C31.1 41.1333 31 41.3333 31 41.6V46.6H13.4V31C13.4 30.8667 13.4 30.8 13.4 30.8H31C31 30.8 31 30.8667 31 31V33.8C31 34.0667 31.1 34.3 31.3 34.5C31.5 34.7 31.7333 34.8 32 34.8H33V35.8C33 36.0667 33.1 36.3 33.3 36.5C33.5 36.7 33.7 36.8 33.9 36.8C34.1 36.8 34.3 36.7 34.5 36.5C34.7 36.3 34.8 36.0667 34.8 35.8V34.8H35.8C36.0667 34.8 36.3 34.7 36.5 34.5C36.7 34.3 36.8 34.0667 36.8 33.8V31C36.8 30.8667 36.8 30.8 36.8 30.8H39.8C39.9333 30.8 40.1 30.7333 40.3 30.6C40.5 30.4667 40.6 30.2667 40.6 30V29H41.6C41.8667 29 42.1 28.9 42.3 28.7C42.5 28.5 42.6 28.2667 42.6 28C42.6 27.7333 42.5 27.5333 42.3 27.4C42.1 27.2667 41.8667 27.2 41.6 27.2H40.6V26.2C40.6 25.9333 40.5 25.7 40.3 25.5C40.1 25.3 39.9333 25.2 39.8 25.2H36.8V22.2C36.8 21.9333 36.7 21.7333 36.5 21.6C36.3 21.4667 36.0667 21.4 35.8 21.4H34.8V20.2C34.8 20.0667 34.7 19.9 34.5 19.7C34.3 19.5 34.1 19.4 33.9 19.4C33.7 19.4 33.5 19.5 33.3 19.7C33.1 19.9 33 20.0667 33 20.2V21.4H32C31.7333 21.4 31.5 21.4667 31.3 21.6C31.1 21.7333 31 21.9333 31 22.2V25.2H22.4C22.1333 25.2 21.9 25.3 21.7 25.5C21.5 25.7 21.4 25.9 21.4 26.1C21.4 26.3 21.5 26.5 21.7 26.7C21.9 26.9 22.1333 27 22.4 27H31C31.5333 27 31.9667 26.8333 32.3 26.5C32.6333 26.1667 32.8 25.7333 32.8 25.2V23.2H35V25.2C35 25.7333 35.1667 26.1667 35.5 26.5C35.8333 26.8333 36.2667 27 36.8 27H38.8V29.2H36.8C36.2667 29.2 35.8333 29.3667 35.5 29.7C35.1667 30.0333 35 30.4667 35 31V33H32.8V31C32.8 30.4667 32.6333 30.0333 32.3 29.7C31.9667 29.3667 31.5333 29.2 31 29.2H13.4C13 29.2 12.6 29.3667 12.2 29.7C11.8 30.0333 11.6 30.4667 11.6 31V46.6C11.6 47 11.8 47.4 12.2 47.8C12.6 48.2 13 48.4 13.4 48.4H31C31.5333 48.4 31.9667 48.2 32.3 47.8C32.6333 47.4 32.8 47 32.8 46.6V42.6H35V46.6C35 47 35.1667 47.4 35.5 47.8C35.8333 48.2 36.2667 48.4 36.8 48.4H54.2C54.7333 48.4 55.2 48.2 55.6 47.8C56 47.4 56.2 47 56.2 46.6V31C56.2 30.4667 56 30.0333 55.6 29.7C55.2 29.3667 54.7333 29.2 54.2 29.2H48.4V27H54.2C54.7333 27 55.2 26.8333 55.6 26.5C56 26.1667 56.2 25.7333 56.2 25.2V23.2H58.2V50.4H9.6V1.8H47.6C47.8667 1.8 48.1 1.7 48.3 1.5C48.5 1.3 48.6 1.1 48.6 0.899998C48.6 0.700001 48.5 0.5 48.3 0.299999C48.1 0.0999985 47.8667 0 47.6 0H9.6H9H8.6H6.8C6.53333 0 6.3 0.0999985 6.1 0.299999C5.9 0.5 5.8 0.700001 5.8 0.899998C5.8 1.1 5.9 1.3 6.1 1.5C6.3 1.7 6.53333 1.8 6.8 1.8H7.8V50.4H6.8C6.53333 50.4 6.3 50.5 6.1 50.7C5.9 50.9 5.8 51.1333 5.8 51.4C5.8 51.6667 5.9 51.8667 6.1 52C6.3 52.1333 6.53333 52.2 6.8 52.2H7.8V53.2C7.8 53.4667 7.86667 53.7 8 53.9C8.13333 54.1 8.33333 54.2 8.6 54.2C8.86667 54.2 9.1 54.1 9.3 53.9C9.5 53.7 9.6 53.4667 9.6 53.2V52.2H58.2V53.2C58.2 53.4667 58.3 53.7 58.5 53.9C58.7 54.1 58.9 54.2 59.1 54.2C59.3 54.2 59.5 54.1 59.7 53.9C59.9 53.7 60 53.4667 60 53.2V51.4V51V50.4V22.2C60 21.9333 59.9 21.7333 59.7 21.6C59.5 21.4667 59.3333 21.4 59.2 21.4ZM58.2 0H51.2C50.9333 0 50.7 0.0999985 50.5 0.299999C50.3 0.5 50.2 0.700001 50.2 0.899998C50.2 1.1 50.3 1.3 50.5 1.5C50.7 1.7 50.9333 1.8 51.2 1.8H58.2V13.6H56.2V5.8C56.2 5.26667 56 4.8 55.6 4.4C55.2 4 54.7333 3.8 54.2 3.8H36.8C36.2667 3.8 35.8333 4 35.5 4.4C35.1667 4.8 35 5.26667 35 5.8V13.6H32.8V5.8C32.8 5.26667 32.6333 4.8 32.3 4.4C31.9667 4 31.5333 3.8 31 3.8H13.4C13 3.8 12.6 4 12.2 4.4C11.8 4.8 11.6 5.26667 11.6 5.8V25.2C11.6 25.7333 11.8 26.1667 12.2 26.5C12.6 26.8333 13 27 13.4 27H18.8C19.0667 27 19.2667 26.9 19.4 26.7C19.5333 26.5 19.6 26.3 19.6 26.1C19.6 25.9 19.5333 25.7 19.4 25.5C19.2667 25.3 19.0667 25.2 18.8 25.2H13.4V5.8C13.4 5.66666 13.4 5.6 13.4 5.6H31C31 5.6 31 5.66666 31 5.8V14.4C31 14.6667 31.1 14.9 31.3 15.1C31.5 15.3 31.7333 15.4 32 15.4H33V16.4C33 16.6667 33.1 16.8667 33.3 17C33.5 17.1333 33.7 17.2 33.9 17.2C34.1 17.2 34.3 17.1333 34.5 17C34.7 16.8667 34.8 16.6667 34.8 16.4V15.4H35.8C36.0667 15.4 36.3 15.3 36.5 15.1C36.7 14.9 36.8 14.6667 36.8 14.4V5.8C36.8 5.66666 36.8 5.6 36.8 5.6H54.2C54.3333 5.6 54.4 5.66666 54.4 5.8V14.4C54.4 14.6667 54.4667 14.9 54.6 15.1C54.7333 15.3 54.9333 15.4 55.2 15.4H56.4V16.4C56.4 16.6667 56.4667 16.8667 56.6 17C56.7333 17.1333 56.9333 17.2 57.2 17.2C57.4667 17.2 57.6667 17.1333 57.8 17C57.9333 16.8667 58 16.6667 58 16.4V15.4H59.2C59.3333 15.4 59.5 15.3 59.7 15.1C59.9 14.9 60 14.6667 60 14.4V1.8C60 1.26667 59.8333 0.833332 59.5 0.5C59.1667 0.166664 58.7333 0 58.2 0ZM55.2 54.4C54.9333 54.4 54.7333 54.4667 54.6 54.6C54.4667 54.7333 54.4 54.9333 54.4 55.2V56.4H13.4V55.2C13.4 54.9333 13.3 54.7333 13.1 54.6C12.9 54.4667 12.7 54.4 12.5 54.4C12.3 54.4 12.1 54.4667 11.9 54.6C11.7 54.7333 11.6 54.9333 11.6 55.2V59.2C11.6 59.3333 11.7 59.5 11.9 59.7C12.1 59.9 12.3 60 12.5 60C12.7 60 12.9 59.9 13.1 59.7C13.3 59.5 13.4 59.3333 13.4 59.2V58H54.4V59.2C54.4 59.3333 54.4667 59.5 54.6 59.7C54.7333 59.9 54.9333 60 55.2 60C55.4667 60 55.7 59.9 55.9 59.7C56.1 59.5 56.2 59.3333 56.2 59.2V55.2C56.2 54.9333 56.1 54.7333 55.9 54.6C55.7 54.4667 55.4667 54.4 55.2 54.4ZM0.8 46.6C0.666667 46.6 0.5 46.7 0.3 46.9C0.1 47.1 0 47.3 0 47.5C0 47.7 0.1 47.9 0.3 48.1C0.5 48.3 0.666667 48.4 0.8 48.4H4.8C5.06667 48.4 5.26667 48.3 5.4 48.1C5.53333 47.9 5.6 47.7 5.6 47.5C5.6 47.3 5.53333 47.1 5.4 46.9C5.26667 46.7 5.06667 46.6 4.8 46.6H3.6V5.6H4.8C5.06667 5.6 5.26667 5.53333 5.4 5.4C5.53333 5.26667 5.6 5.06667 5.6 4.8C5.6 4.53333 5.53333 4.3 5.4 4.1C5.26667 3.9 5.06667 3.8 4.8 3.8H0.8C0.666667 3.8 0.5 3.9 0.3 4.1C0.1 4.3 0 4.53333 0 4.8C0 5.06667 0.1 5.26667 0.3 5.4C0.5 5.53333 0.666667 5.6 0.8 5.6H2V46.6H0.8ZM0.8 52.2H2.8C3.06667 52.2 3.26667 52.1333 3.4 52C3.53333 51.8667 3.6 51.6667 3.6 51.4C3.6 51.1333 3.53333 50.9 3.4 50.7C3.26667 50.5 3.06667 50.4 2.8 50.4H0.8C0.666667 50.4 0.5 50.5 0.3 50.7C0.1 50.9 0 51.1333 0 51.4C0 51.6667 0.1 51.8667 0.3 52C0.5 52.1333 0.666667 52.2 0.8 52.2ZM0.8 1.8H2.8C3.06667 1.8 3.26667 1.7 3.4 1.5C3.53333 1.3 3.6 1.1 3.6 0.899998C3.6 0.700001 3.53333 0.5 3.4 0.299999C3.26667 0.0999985 3.06667 0 2.8 0H0.8C0.666667 0 0.5 0.0999985 0.3 0.299999C0.1 0.5 0 0.700001 0 0.899998C0 1.1 0.1 1.3 0.3 1.5C0.5 1.7 0.666667 1.8 0.8 1.8ZM8.6 56.4C8.33333 56.4 8.13333 56.4667 8 56.6C7.86667 56.7333 7.8 56.9333 7.8 57.2V59.2C7.8 59.3333 7.86667 59.5 8 59.7C8.13333 59.9 8.33333 60 8.6 60C8.86667 60 9.1 59.9 9.3 59.7C9.5 59.5 9.6 59.3333 9.6 59.2V57.2C9.6 56.9333 9.5 56.7333 9.3 56.6C9.1 56.4667 8.86667 56.4 8.6 56.4ZM59.2 56.4C58.9333 56.4 58.7 56.4667 58.5 56.6C58.3 56.7333 58.2 56.9333 58.2 57.2V59.2C58.2 59.3333 58.3 59.5 58.5 59.7C58.7 59.9 58.9 60 59.1 60C59.3 60 59.5 59.9 59.7 59.7C59.9 59.5 60 59.3333 60 59.2V57.2C60 56.9333 59.9 56.7333 59.7 56.6C59.5 56.4667 59.3333 56.4 59.2 56.4ZM5.4 54.6C5.26667 54.4667 5.06667 54.4 4.8 54.4C4.53333 54.4 4.33333 54.4667 4.2 54.6L2.8 56L1.6 54.6C1.33333 54.4667 1.1 54.4 0.9 54.4C0.7 54.4 0.5 54.4667 0.3 54.6C0.1 54.7333 0 54.9333 0 55.2C0 55.4667 0.0666667 55.6667 0.2 55.8L1.6 57.2L0.2 58.4C0.0666667 58.6667 0 58.9 0 59.1C0 59.3 0.1 59.5 0.3 59.7C0.5 59.9 0.7 60 0.9 60C1.1 60 1.33333 59.9333 1.6 59.8L2.8 58.4L4.2 59.8C4.33333 59.9333 4.53333 60 4.8 60C5.06667 60 5.26667 59.9 5.4 59.7C5.53333 59.5 5.6 59.3 5.6 59.1C5.6 58.9 5.53333 58.6667 5.4 58.4L4 57.2L5.4 55.8C5.53333 55.6667 5.6 55.4667 5.6 55.2C5.6 54.9333 5.53333 54.7333 5.4 54.6Z" fill="white"/>
</svg>
